<mxfile host="app.diagrams.net" agent="Mozilla/5.0 (X11; Linux x86_64) AppleWebKit/537.36 (KHTML, like Gecko) Chrome/135.0.0.0 Safari/537.36" version="26.2.14">
  <diagram name="Page-1" id="vHG7mOKKZMKuYX-PGG-n">
    <mxGraphModel dx="143" dy="707" grid="0" gridSize="10" guides="1" tooltips="1" connect="1" arrows="1" fold="1" page="1" pageScale="1" pageWidth="1100" pageHeight="850" math="0" shadow="0">
      <root>
        <mxCell id="0" />
        <mxCell id="1" parent="0" />
        <mxCell id="YwwB2dCAXqtVPiqAfEC3-29" value="insurances" style="shape=table;startSize=30;container=1;collapsible=1;childLayout=tableLayout;fixedRows=1;rowLines=0;fontStyle=1;align=center;resizeLast=1;html=1;" parent="1" vertex="1">
          <mxGeometry x="1553" y="291" width="180" height="240" as="geometry" />
        </mxCell>
        <mxCell id="YwwB2dCAXqtVPiqAfEC3-30" value="" style="shape=tableRow;horizontal=0;startSize=0;swimlaneHead=0;swimlaneBody=0;fillColor=none;collapsible=0;dropTarget=0;points=[[0,0.5],[1,0.5]];portConstraint=eastwest;top=0;left=0;right=0;bottom=1;" parent="YwwB2dCAXqtVPiqAfEC3-29" vertex="1">
          <mxGeometry y="30" width="180" height="30" as="geometry" />
        </mxCell>
        <mxCell id="YwwB2dCAXqtVPiqAfEC3-31" value="PK" style="shape=partialRectangle;connectable=0;fillColor=none;top=0;left=0;bottom=0;right=0;fontStyle=1;overflow=hidden;whiteSpace=wrap;html=1;" parent="YwwB2dCAXqtVPiqAfEC3-30" vertex="1">
          <mxGeometry width="30" height="30" as="geometry">
            <mxRectangle width="30" height="30" as="alternateBounds" />
          </mxGeometry>
        </mxCell>
        <mxCell id="YwwB2dCAXqtVPiqAfEC3-32" value="id" style="shape=partialRectangle;connectable=0;fillColor=none;top=0;left=0;bottom=0;right=0;align=left;spacingLeft=6;fontStyle=5;overflow=hidden;whiteSpace=wrap;html=1;" parent="YwwB2dCAXqtVPiqAfEC3-30" vertex="1">
          <mxGeometry x="30" width="150" height="30" as="geometry">
            <mxRectangle width="150" height="30" as="alternateBounds" />
          </mxGeometry>
        </mxCell>
        <mxCell id="YwwB2dCAXqtVPiqAfEC3-33" value="" style="shape=tableRow;horizontal=0;startSize=0;swimlaneHead=0;swimlaneBody=0;fillColor=none;collapsible=0;dropTarget=0;points=[[0,0.5],[1,0.5]];portConstraint=eastwest;top=0;left=0;right=0;bottom=0;" parent="YwwB2dCAXqtVPiqAfEC3-29" vertex="1">
          <mxGeometry y="60" width="180" height="30" as="geometry" />
        </mxCell>
        <mxCell id="YwwB2dCAXqtVPiqAfEC3-34" value="FK" style="shape=partialRectangle;connectable=0;fillColor=none;top=0;left=0;bottom=0;right=0;editable=1;overflow=hidden;whiteSpace=wrap;html=1;" parent="YwwB2dCAXqtVPiqAfEC3-33" vertex="1">
          <mxGeometry width="30" height="30" as="geometry">
            <mxRectangle width="30" height="30" as="alternateBounds" />
          </mxGeometry>
        </mxCell>
        <mxCell id="YwwB2dCAXqtVPiqAfEC3-35" value="client_id" style="shape=partialRectangle;connectable=0;fillColor=none;top=0;left=0;bottom=0;right=0;align=left;spacingLeft=6;overflow=hidden;whiteSpace=wrap;html=1;" parent="YwwB2dCAXqtVPiqAfEC3-33" vertex="1">
          <mxGeometry x="30" width="150" height="30" as="geometry">
            <mxRectangle width="150" height="30" as="alternateBounds" />
          </mxGeometry>
        </mxCell>
        <mxCell id="YwwB2dCAXqtVPiqAfEC3-92" value="" style="shape=tableRow;horizontal=0;startSize=0;swimlaneHead=0;swimlaneBody=0;fillColor=none;collapsible=0;dropTarget=0;points=[[0,0.5],[1,0.5]];portConstraint=eastwest;top=0;left=0;right=0;bottom=0;" parent="YwwB2dCAXqtVPiqAfEC3-29" vertex="1">
          <mxGeometry y="90" width="180" height="30" as="geometry" />
        </mxCell>
        <mxCell id="YwwB2dCAXqtVPiqAfEC3-93" value="" style="shape=partialRectangle;connectable=0;fillColor=none;top=0;left=0;bottom=0;right=0;editable=1;overflow=hidden;whiteSpace=wrap;html=1;" parent="YwwB2dCAXqtVPiqAfEC3-92" vertex="1">
          <mxGeometry width="30" height="30" as="geometry">
            <mxRectangle width="30" height="30" as="alternateBounds" />
          </mxGeometry>
        </mxCell>
        <mxCell id="YwwB2dCAXqtVPiqAfEC3-94" value="type" style="shape=partialRectangle;connectable=0;fillColor=none;top=0;left=0;bottom=0;right=0;align=left;spacingLeft=6;overflow=hidden;whiteSpace=wrap;html=1;" parent="YwwB2dCAXqtVPiqAfEC3-92" vertex="1">
          <mxGeometry x="30" width="150" height="30" as="geometry">
            <mxRectangle width="150" height="30" as="alternateBounds" />
          </mxGeometry>
        </mxCell>
        <mxCell id="YwwB2dCAXqtVPiqAfEC3-75" value="" style="shape=tableRow;horizontal=0;startSize=0;swimlaneHead=0;swimlaneBody=0;fillColor=none;collapsible=0;dropTarget=0;points=[[0,0.5],[1,0.5]];portConstraint=eastwest;top=0;left=0;right=0;bottom=0;" parent="YwwB2dCAXqtVPiqAfEC3-29" vertex="1">
          <mxGeometry y="120" width="180" height="30" as="geometry" />
        </mxCell>
        <mxCell id="YwwB2dCAXqtVPiqAfEC3-76" value="" style="shape=partialRectangle;connectable=0;fillColor=none;top=0;left=0;bottom=0;right=0;editable=1;overflow=hidden;whiteSpace=wrap;html=1;" parent="YwwB2dCAXqtVPiqAfEC3-75" vertex="1">
          <mxGeometry width="30" height="30" as="geometry">
            <mxRectangle width="30" height="30" as="alternateBounds" />
          </mxGeometry>
        </mxCell>
        <mxCell id="YwwB2dCAXqtVPiqAfEC3-77" value="percentage_covered" style="shape=partialRectangle;connectable=0;fillColor=none;top=0;left=0;bottom=0;right=0;align=left;spacingLeft=6;overflow=hidden;whiteSpace=wrap;html=1;" parent="YwwB2dCAXqtVPiqAfEC3-75" vertex="1">
          <mxGeometry x="30" width="150" height="30" as="geometry">
            <mxRectangle width="150" height="30" as="alternateBounds" />
          </mxGeometry>
        </mxCell>
        <mxCell id="YwwB2dCAXqtVPiqAfEC3-36" value="" style="shape=tableRow;horizontal=0;startSize=0;swimlaneHead=0;swimlaneBody=0;fillColor=none;collapsible=0;dropTarget=0;points=[[0,0.5],[1,0.5]];portConstraint=eastwest;top=0;left=0;right=0;bottom=0;" parent="YwwB2dCAXqtVPiqAfEC3-29" vertex="1">
          <mxGeometry y="150" width="180" height="30" as="geometry" />
        </mxCell>
        <mxCell id="YwwB2dCAXqtVPiqAfEC3-37" value="" style="shape=partialRectangle;connectable=0;fillColor=none;top=0;left=0;bottom=0;right=0;editable=1;overflow=hidden;whiteSpace=wrap;html=1;" parent="YwwB2dCAXqtVPiqAfEC3-36" vertex="1">
          <mxGeometry width="30" height="30" as="geometry">
            <mxRectangle width="30" height="30" as="alternateBounds" />
          </mxGeometry>
        </mxCell>
        <mxCell id="YwwB2dCAXqtVPiqAfEC3-38" value="start_date" style="shape=partialRectangle;connectable=0;fillColor=none;top=0;left=0;bottom=0;right=0;align=left;spacingLeft=6;overflow=hidden;whiteSpace=wrap;html=1;" parent="YwwB2dCAXqtVPiqAfEC3-36" vertex="1">
          <mxGeometry x="30" width="150" height="30" as="geometry">
            <mxRectangle width="150" height="30" as="alternateBounds" />
          </mxGeometry>
        </mxCell>
        <mxCell id="YwwB2dCAXqtVPiqAfEC3-39" value="" style="shape=tableRow;horizontal=0;startSize=0;swimlaneHead=0;swimlaneBody=0;fillColor=none;collapsible=0;dropTarget=0;points=[[0,0.5],[1,0.5]];portConstraint=eastwest;top=0;left=0;right=0;bottom=0;" parent="YwwB2dCAXqtVPiqAfEC3-29" vertex="1">
          <mxGeometry y="180" width="180" height="30" as="geometry" />
        </mxCell>
        <mxCell id="YwwB2dCAXqtVPiqAfEC3-40" value="" style="shape=partialRectangle;connectable=0;fillColor=none;top=0;left=0;bottom=0;right=0;editable=1;overflow=hidden;whiteSpace=wrap;html=1;" parent="YwwB2dCAXqtVPiqAfEC3-39" vertex="1">
          <mxGeometry width="30" height="30" as="geometry">
            <mxRectangle width="30" height="30" as="alternateBounds" />
          </mxGeometry>
        </mxCell>
        <mxCell id="YwwB2dCAXqtVPiqAfEC3-41" value="end_date" style="shape=partialRectangle;connectable=0;fillColor=none;top=0;left=0;bottom=0;right=0;align=left;spacingLeft=6;overflow=hidden;whiteSpace=wrap;html=1;" parent="YwwB2dCAXqtVPiqAfEC3-39" vertex="1">
          <mxGeometry x="30" width="150" height="30" as="geometry">
            <mxRectangle width="150" height="30" as="alternateBounds" />
          </mxGeometry>
        </mxCell>
        <mxCell id="YwwB2dCAXqtVPiqAfEC3-42" value="" style="shape=tableRow;horizontal=0;startSize=0;swimlaneHead=0;swimlaneBody=0;fillColor=none;collapsible=0;dropTarget=0;points=[[0,0.5],[1,0.5]];portConstraint=eastwest;top=0;left=0;right=0;bottom=0;" parent="YwwB2dCAXqtVPiqAfEC3-29" vertex="1">
          <mxGeometry y="210" width="180" height="30" as="geometry" />
        </mxCell>
        <mxCell id="YwwB2dCAXqtVPiqAfEC3-43" value="" style="shape=partialRectangle;connectable=0;fillColor=none;top=0;left=0;bottom=0;right=0;editable=1;overflow=hidden;whiteSpace=wrap;html=1;" parent="YwwB2dCAXqtVPiqAfEC3-42" vertex="1">
          <mxGeometry width="30" height="30" as="geometry">
            <mxRectangle width="30" height="30" as="alternateBounds" />
          </mxGeometry>
        </mxCell>
        <mxCell id="YwwB2dCAXqtVPiqAfEC3-44" value="annual_cost" style="shape=partialRectangle;connectable=0;fillColor=none;top=0;left=0;bottom=0;right=0;align=left;spacingLeft=6;overflow=hidden;whiteSpace=wrap;html=1;" parent="YwwB2dCAXqtVPiqAfEC3-42" vertex="1">
          <mxGeometry x="30" width="150" height="30" as="geometry">
            <mxRectangle width="150" height="30" as="alternateBounds" />
          </mxGeometry>
        </mxCell>
        <mxCell id="YwwB2dCAXqtVPiqAfEC3-61" value="clients" style="shape=table;startSize=30;container=1;collapsible=1;childLayout=tableLayout;fixedRows=1;rowLines=0;fontStyle=1;align=center;resizeLast=1;html=1;" parent="1" vertex="1">
          <mxGeometry x="1210" y="326" width="180" height="120" as="geometry" />
        </mxCell>
        <mxCell id="YwwB2dCAXqtVPiqAfEC3-62" value="" style="shape=tableRow;horizontal=0;startSize=0;swimlaneHead=0;swimlaneBody=0;fillColor=none;collapsible=0;dropTarget=0;points=[[0,0.5],[1,0.5]];portConstraint=eastwest;top=0;left=0;right=0;bottom=1;" parent="YwwB2dCAXqtVPiqAfEC3-61" vertex="1">
          <mxGeometry y="30" width="180" height="30" as="geometry" />
        </mxCell>
        <mxCell id="YwwB2dCAXqtVPiqAfEC3-63" value="PK" style="shape=partialRectangle;connectable=0;fillColor=none;top=0;left=0;bottom=0;right=0;fontStyle=1;overflow=hidden;whiteSpace=wrap;html=1;" parent="YwwB2dCAXqtVPiqAfEC3-62" vertex="1">
          <mxGeometry width="30" height="30" as="geometry">
            <mxRectangle width="30" height="30" as="alternateBounds" />
          </mxGeometry>
        </mxCell>
        <mxCell id="YwwB2dCAXqtVPiqAfEC3-64" value="id" style="shape=partialRectangle;connectable=0;fillColor=none;top=0;left=0;bottom=0;right=0;align=left;spacingLeft=6;fontStyle=5;overflow=hidden;whiteSpace=wrap;html=1;" parent="YwwB2dCAXqtVPiqAfEC3-62" vertex="1">
          <mxGeometry x="30" width="150" height="30" as="geometry">
            <mxRectangle width="150" height="30" as="alternateBounds" />
          </mxGeometry>
        </mxCell>
        <mxCell id="YwwB2dCAXqtVPiqAfEC3-65" value="" style="shape=tableRow;horizontal=0;startSize=0;swimlaneHead=0;swimlaneBody=0;fillColor=none;collapsible=0;dropTarget=0;points=[[0,0.5],[1,0.5]];portConstraint=eastwest;top=0;left=0;right=0;bottom=0;" parent="YwwB2dCAXqtVPiqAfEC3-61" vertex="1">
          <mxGeometry y="60" width="180" height="30" as="geometry" />
        </mxCell>
        <mxCell id="YwwB2dCAXqtVPiqAfEC3-66" value="UQ" style="shape=partialRectangle;connectable=0;fillColor=none;top=0;left=0;bottom=0;right=0;editable=1;overflow=hidden;whiteSpace=wrap;html=1;" parent="YwwB2dCAXqtVPiqAfEC3-65" vertex="1">
          <mxGeometry width="30" height="30" as="geometry">
            <mxRectangle width="30" height="30" as="alternateBounds" />
          </mxGeometry>
        </mxCell>
        <mxCell id="YwwB2dCAXqtVPiqAfEC3-67" value="id_document_number" style="shape=partialRectangle;connectable=0;fillColor=none;top=0;left=0;bottom=0;right=0;align=left;spacingLeft=6;overflow=hidden;whiteSpace=wrap;html=1;" parent="YwwB2dCAXqtVPiqAfEC3-65" vertex="1">
          <mxGeometry x="30" width="150" height="30" as="geometry">
            <mxRectangle width="150" height="30" as="alternateBounds" />
          </mxGeometry>
        </mxCell>
        <mxCell id="YwwB2dCAXqtVPiqAfEC3-68" value="" style="shape=tableRow;horizontal=0;startSize=0;swimlaneHead=0;swimlaneBody=0;fillColor=none;collapsible=0;dropTarget=0;points=[[0,0.5],[1,0.5]];portConstraint=eastwest;top=0;left=0;right=0;bottom=0;" parent="YwwB2dCAXqtVPiqAfEC3-61" vertex="1">
          <mxGeometry y="90" width="180" height="30" as="geometry" />
        </mxCell>
        <mxCell id="YwwB2dCAXqtVPiqAfEC3-69" value="" style="shape=partialRectangle;connectable=0;fillColor=none;top=0;left=0;bottom=0;right=0;editable=1;overflow=hidden;whiteSpace=wrap;html=1;" parent="YwwB2dCAXqtVPiqAfEC3-68" vertex="1">
          <mxGeometry width="30" height="30" as="geometry">
            <mxRectangle width="30" height="30" as="alternateBounds" />
          </mxGeometry>
        </mxCell>
        <mxCell id="YwwB2dCAXqtVPiqAfEC3-70" value="fullname" style="shape=partialRectangle;connectable=0;fillColor=none;top=0;left=0;bottom=0;right=0;align=left;spacingLeft=6;overflow=hidden;whiteSpace=wrap;html=1;" parent="YwwB2dCAXqtVPiqAfEC3-68" vertex="1">
          <mxGeometry x="30" width="150" height="30" as="geometry">
            <mxRectangle width="150" height="30" as="alternateBounds" />
          </mxGeometry>
        </mxCell>
        <mxCell id="YwwB2dCAXqtVPiqAfEC3-74" value="" style="edgeStyle=entityRelationEdgeStyle;fontSize=12;html=1;endArrow=ERzeroToMany;startArrow=ERmandOne;rounded=0;entryX=0;entryY=0.5;entryDx=0;entryDy=0;exitX=1;exitY=0.5;exitDx=0;exitDy=0;" parent="1" source="YwwB2dCAXqtVPiqAfEC3-62" target="YwwB2dCAXqtVPiqAfEC3-33" edge="1">
          <mxGeometry width="100" height="100" relative="1" as="geometry">
            <mxPoint x="1244" y="513.5" as="sourcePoint" />
            <mxPoint x="1500" y="439.5" as="targetPoint" />
          </mxGeometry>
        </mxCell>
        <mxCell id="YwwB2dCAXqtVPiqAfEC3-78" value="vehicle" style="shape=table;startSize=30;container=1;collapsible=1;childLayout=tableLayout;fixedRows=1;rowLines=0;fontStyle=1;align=center;resizeLast=1;html=1;" parent="1" vertex="1">
          <mxGeometry x="1910" y="202" width="180" height="120" as="geometry" />
        </mxCell>
        <mxCell id="YwwB2dCAXqtVPiqAfEC3-79" value="" style="shape=tableRow;horizontal=0;startSize=0;swimlaneHead=0;swimlaneBody=0;fillColor=none;collapsible=0;dropTarget=0;points=[[0,0.5],[1,0.5]];portConstraint=eastwest;top=0;left=0;right=0;bottom=1;" parent="YwwB2dCAXqtVPiqAfEC3-78" vertex="1">
          <mxGeometry y="30" width="180" height="30" as="geometry" />
        </mxCell>
        <mxCell id="YwwB2dCAXqtVPiqAfEC3-80" value="PK,FK" style="shape=partialRectangle;connectable=0;fillColor=none;top=0;left=0;bottom=0;right=0;fontStyle=1;overflow=hidden;whiteSpace=wrap;html=1;" parent="YwwB2dCAXqtVPiqAfEC3-79" vertex="1">
          <mxGeometry width="43.13161073881997" height="30" as="geometry">
            <mxRectangle width="43.13161073881997" height="30" as="alternateBounds" />
          </mxGeometry>
        </mxCell>
        <mxCell id="YwwB2dCAXqtVPiqAfEC3-81" value="insurance_id" style="shape=partialRectangle;connectable=0;fillColor=none;top=0;left=0;bottom=0;right=0;align=left;spacingLeft=6;fontStyle=5;overflow=hidden;whiteSpace=wrap;html=1;" parent="YwwB2dCAXqtVPiqAfEC3-79" vertex="1">
          <mxGeometry x="43.13161073881997" width="136.86838926118003" height="30" as="geometry">
            <mxRectangle width="136.86838926118003" height="30" as="alternateBounds" />
          </mxGeometry>
        </mxCell>
        <mxCell id="YwwB2dCAXqtVPiqAfEC3-82" value="" style="shape=tableRow;horizontal=0;startSize=0;swimlaneHead=0;swimlaneBody=0;fillColor=none;collapsible=0;dropTarget=0;points=[[0,0.5],[1,0.5]];portConstraint=eastwest;top=0;left=0;right=0;bottom=0;" parent="YwwB2dCAXqtVPiqAfEC3-78" vertex="1">
          <mxGeometry y="60" width="180" height="30" as="geometry" />
        </mxCell>
        <mxCell id="YwwB2dCAXqtVPiqAfEC3-83" value="UQ" style="shape=partialRectangle;connectable=0;fillColor=none;top=0;left=0;bottom=0;right=0;editable=1;overflow=hidden;whiteSpace=wrap;html=1;" parent="YwwB2dCAXqtVPiqAfEC3-82" vertex="1">
          <mxGeometry width="43.13161073881997" height="30" as="geometry">
            <mxRectangle width="43.13161073881997" height="30" as="alternateBounds" />
          </mxGeometry>
        </mxCell>
        <mxCell id="YwwB2dCAXqtVPiqAfEC3-84" value="plate_number" style="shape=partialRectangle;connectable=0;fillColor=none;top=0;left=0;bottom=0;right=0;align=left;spacingLeft=6;overflow=hidden;whiteSpace=wrap;html=1;" parent="YwwB2dCAXqtVPiqAfEC3-82" vertex="1">
          <mxGeometry x="43.13161073881997" width="136.86838926118003" height="30" as="geometry">
            <mxRectangle width="136.86838926118003" height="30" as="alternateBounds" />
          </mxGeometry>
        </mxCell>
        <mxCell id="YwwB2dCAXqtVPiqAfEC3-85" value="" style="shape=tableRow;horizontal=0;startSize=0;swimlaneHead=0;swimlaneBody=0;fillColor=none;collapsible=0;dropTarget=0;points=[[0,0.5],[1,0.5]];portConstraint=eastwest;top=0;left=0;right=0;bottom=0;" parent="YwwB2dCAXqtVPiqAfEC3-78" vertex="1">
          <mxGeometry y="90" width="180" height="30" as="geometry" />
        </mxCell>
        <mxCell id="YwwB2dCAXqtVPiqAfEC3-86" value="" style="shape=partialRectangle;connectable=0;fillColor=none;top=0;left=0;bottom=0;right=0;editable=1;overflow=hidden;whiteSpace=wrap;html=1;" parent="YwwB2dCAXqtVPiqAfEC3-85" vertex="1">
          <mxGeometry width="43.13161073881997" height="30" as="geometry">
            <mxRectangle width="43.13161073881997" height="30" as="alternateBounds" />
          </mxGeometry>
        </mxCell>
        <mxCell id="YwwB2dCAXqtVPiqAfEC3-87" value="price" style="shape=partialRectangle;connectable=0;fillColor=none;top=0;left=0;bottom=0;right=0;align=left;spacingLeft=6;overflow=hidden;whiteSpace=wrap;html=1;" parent="YwwB2dCAXqtVPiqAfEC3-85" vertex="1">
          <mxGeometry x="43.13161073881997" width="136.86838926118003" height="30" as="geometry">
            <mxRectangle width="136.86838926118003" height="30" as="alternateBounds" />
          </mxGeometry>
        </mxCell>
        <mxCell id="cykcpl2Lfb5nTlmboGrK-1" value="property" style="shape=table;startSize=30;container=1;collapsible=1;childLayout=tableLayout;fixedRows=1;rowLines=0;fontStyle=1;align=center;resizeLast=1;html=1;" vertex="1" parent="1">
          <mxGeometry x="1910" y="380" width="180" height="210" as="geometry" />
        </mxCell>
        <mxCell id="cykcpl2Lfb5nTlmboGrK-2" value="" style="shape=tableRow;horizontal=0;startSize=0;swimlaneHead=0;swimlaneBody=0;fillColor=none;collapsible=0;dropTarget=0;points=[[0,0.5],[1,0.5]];portConstraint=eastwest;top=0;left=0;right=0;bottom=1;" vertex="1" parent="cykcpl2Lfb5nTlmboGrK-1">
          <mxGeometry y="30" width="180" height="30" as="geometry" />
        </mxCell>
        <mxCell id="cykcpl2Lfb5nTlmboGrK-3" value="PK,FK" style="shape=partialRectangle;connectable=0;fillColor=none;top=0;left=0;bottom=0;right=0;fontStyle=1;overflow=hidden;whiteSpace=wrap;html=1;" vertex="1" parent="cykcpl2Lfb5nTlmboGrK-2">
          <mxGeometry width="43.13161073881997" height="30" as="geometry">
            <mxRectangle width="43.13161073881997" height="30" as="alternateBounds" />
          </mxGeometry>
        </mxCell>
        <mxCell id="cykcpl2Lfb5nTlmboGrK-4" value="insurance_id" style="shape=partialRectangle;connectable=0;fillColor=none;top=0;left=0;bottom=0;right=0;align=left;spacingLeft=6;fontStyle=5;overflow=hidden;whiteSpace=wrap;html=1;" vertex="1" parent="cykcpl2Lfb5nTlmboGrK-2">
          <mxGeometry x="43.13161073881997" width="136.86838926118003" height="30" as="geometry">
            <mxRectangle width="136.86838926118003" height="30" as="alternateBounds" />
          </mxGeometry>
        </mxCell>
        <mxCell id="cykcpl2Lfb5nTlmboGrK-5" value="" style="shape=tableRow;horizontal=0;startSize=0;swimlaneHead=0;swimlaneBody=0;fillColor=none;collapsible=0;dropTarget=0;points=[[0,0.5],[1,0.5]];portConstraint=eastwest;top=0;left=0;right=0;bottom=0;" vertex="1" parent="cykcpl2Lfb5nTlmboGrK-1">
          <mxGeometry y="60" width="180" height="30" as="geometry" />
        </mxCell>
        <mxCell id="cykcpl2Lfb5nTlmboGrK-6" value="" style="shape=partialRectangle;connectable=0;fillColor=none;top=0;left=0;bottom=0;right=0;editable=1;overflow=hidden;whiteSpace=wrap;html=1;" vertex="1" parent="cykcpl2Lfb5nTlmboGrK-5">
          <mxGeometry width="43.13161073881997" height="30" as="geometry">
            <mxRectangle width="43.13161073881997" height="30" as="alternateBounds" />
          </mxGeometry>
        </mxCell>
        <mxCell id="cykcpl2Lfb5nTlmboGrK-7" value="area" style="shape=partialRectangle;connectable=0;fillColor=none;top=0;left=0;bottom=0;right=0;align=left;spacingLeft=6;overflow=hidden;whiteSpace=wrap;html=1;" vertex="1" parent="cykcpl2Lfb5nTlmboGrK-5">
          <mxGeometry x="43.13161073881997" width="136.86838926118003" height="30" as="geometry">
            <mxRectangle width="136.86838926118003" height="30" as="alternateBounds" />
          </mxGeometry>
        </mxCell>
        <mxCell id="cykcpl2Lfb5nTlmboGrK-8" value="" style="shape=tableRow;horizontal=0;startSize=0;swimlaneHead=0;swimlaneBody=0;fillColor=none;collapsible=0;dropTarget=0;points=[[0,0.5],[1,0.5]];portConstraint=eastwest;top=0;left=0;right=0;bottom=0;" vertex="1" parent="cykcpl2Lfb5nTlmboGrK-1">
          <mxGeometry y="90" width="180" height="30" as="geometry" />
        </mxCell>
        <mxCell id="cykcpl2Lfb5nTlmboGrK-9" value="" style="shape=partialRectangle;connectable=0;fillColor=none;top=0;left=0;bottom=0;right=0;editable=1;overflow=hidden;whiteSpace=wrap;html=1;" vertex="1" parent="cykcpl2Lfb5nTlmboGrK-8">
          <mxGeometry width="43.13161073881997" height="30" as="geometry">
            <mxRectangle width="43.13161073881997" height="30" as="alternateBounds" />
          </mxGeometry>
        </mxCell>
        <mxCell id="cykcpl2Lfb5nTlmboGrK-10" value="city" style="shape=partialRectangle;connectable=0;fillColor=none;top=0;left=0;bottom=0;right=0;align=left;spacingLeft=6;overflow=hidden;whiteSpace=wrap;html=1;" vertex="1" parent="cykcpl2Lfb5nTlmboGrK-8">
          <mxGeometry x="43.13161073881997" width="136.86838926118003" height="30" as="geometry">
            <mxRectangle width="136.86838926118003" height="30" as="alternateBounds" />
          </mxGeometry>
        </mxCell>
        <mxCell id="cykcpl2Lfb5nTlmboGrK-21" value="" style="shape=tableRow;horizontal=0;startSize=0;swimlaneHead=0;swimlaneBody=0;fillColor=none;collapsible=0;dropTarget=0;points=[[0,0.5],[1,0.5]];portConstraint=eastwest;top=0;left=0;right=0;bottom=0;" vertex="1" parent="cykcpl2Lfb5nTlmboGrK-1">
          <mxGeometry y="120" width="180" height="30" as="geometry" />
        </mxCell>
        <mxCell id="cykcpl2Lfb5nTlmboGrK-22" value="" style="shape=partialRectangle;connectable=0;fillColor=none;top=0;left=0;bottom=0;right=0;editable=1;overflow=hidden;whiteSpace=wrap;html=1;" vertex="1" parent="cykcpl2Lfb5nTlmboGrK-21">
          <mxGeometry width="43.13161073881997" height="30" as="geometry">
            <mxRectangle width="43.13161073881997" height="30" as="alternateBounds" />
          </mxGeometry>
        </mxCell>
        <mxCell id="cykcpl2Lfb5nTlmboGrK-23" value="street" style="shape=partialRectangle;connectable=0;fillColor=none;top=0;left=0;bottom=0;right=0;align=left;spacingLeft=6;overflow=hidden;whiteSpace=wrap;html=1;" vertex="1" parent="cykcpl2Lfb5nTlmboGrK-21">
          <mxGeometry x="43.13161073881997" width="136.86838926118003" height="30" as="geometry">
            <mxRectangle width="136.86838926118003" height="30" as="alternateBounds" />
          </mxGeometry>
        </mxCell>
        <mxCell id="cykcpl2Lfb5nTlmboGrK-24" value="" style="shape=tableRow;horizontal=0;startSize=0;swimlaneHead=0;swimlaneBody=0;fillColor=none;collapsible=0;dropTarget=0;points=[[0,0.5],[1,0.5]];portConstraint=eastwest;top=0;left=0;right=0;bottom=0;" vertex="1" parent="cykcpl2Lfb5nTlmboGrK-1">
          <mxGeometry y="150" width="180" height="30" as="geometry" />
        </mxCell>
        <mxCell id="cykcpl2Lfb5nTlmboGrK-25" value="" style="shape=partialRectangle;connectable=0;fillColor=none;top=0;left=0;bottom=0;right=0;editable=1;overflow=hidden;whiteSpace=wrap;html=1;" vertex="1" parent="cykcpl2Lfb5nTlmboGrK-24">
          <mxGeometry width="43.13161073881997" height="30" as="geometry">
            <mxRectangle width="43.13161073881997" height="30" as="alternateBounds" />
          </mxGeometry>
        </mxCell>
        <mxCell id="cykcpl2Lfb5nTlmboGrK-26" value="number" style="shape=partialRectangle;connectable=0;fillColor=none;top=0;left=0;bottom=0;right=0;align=left;spacingLeft=6;overflow=hidden;whiteSpace=wrap;html=1;" vertex="1" parent="cykcpl2Lfb5nTlmboGrK-24">
          <mxGeometry x="43.13161073881997" width="136.86838926118003" height="30" as="geometry">
            <mxRectangle width="136.86838926118003" height="30" as="alternateBounds" />
          </mxGeometry>
        </mxCell>
        <mxCell id="cykcpl2Lfb5nTlmboGrK-43" value="" style="shape=tableRow;horizontal=0;startSize=0;swimlaneHead=0;swimlaneBody=0;fillColor=none;collapsible=0;dropTarget=0;points=[[0,0.5],[1,0.5]];portConstraint=eastwest;top=0;left=0;right=0;bottom=0;" vertex="1" parent="cykcpl2Lfb5nTlmboGrK-1">
          <mxGeometry y="180" width="180" height="30" as="geometry" />
        </mxCell>
        <mxCell id="cykcpl2Lfb5nTlmboGrK-44" value="NULL" style="shape=partialRectangle;connectable=0;fillColor=none;top=0;left=0;bottom=0;right=0;editable=1;overflow=hidden;whiteSpace=wrap;html=1;" vertex="1" parent="cykcpl2Lfb5nTlmboGrK-43">
          <mxGeometry width="43.13161073881997" height="30" as="geometry">
            <mxRectangle width="43.13161073881997" height="30" as="alternateBounds" />
          </mxGeometry>
        </mxCell>
        <mxCell id="cykcpl2Lfb5nTlmboGrK-45" value="unit" style="shape=partialRectangle;connectable=0;fillColor=none;top=0;left=0;bottom=0;right=0;align=left;spacingLeft=6;overflow=hidden;whiteSpace=wrap;html=1;" vertex="1" parent="cykcpl2Lfb5nTlmboGrK-43">
          <mxGeometry x="43.13161073881997" width="136.86838926118003" height="30" as="geometry">
            <mxRectangle width="136.86838926118003" height="30" as="alternateBounds" />
          </mxGeometry>
        </mxCell>
        <mxCell id="cykcpl2Lfb5nTlmboGrK-47" value="" style="edgeStyle=entityRelationEdgeStyle;fontSize=12;html=1;endArrow=ERzeroToOne;startArrow=ERmandOne;rounded=0;entryX=0;entryY=0.5;entryDx=0;entryDy=0;exitX=1;exitY=0.274;exitDx=0;exitDy=0;exitPerimeter=0;" edge="1" parent="1" source="YwwB2dCAXqtVPiqAfEC3-30" target="YwwB2dCAXqtVPiqAfEC3-79">
          <mxGeometry width="100" height="100" relative="1" as="geometry">
            <mxPoint x="1857" y="469" as="sourcePoint" />
            <mxPoint x="1957" y="369" as="targetPoint" />
          </mxGeometry>
        </mxCell>
        <mxCell id="cykcpl2Lfb5nTlmboGrK-48" value="" style="edgeStyle=entityRelationEdgeStyle;fontSize=12;html=1;endArrow=ERzeroToOne;startArrow=ERmandOne;rounded=0;entryX=0;entryY=0.5;entryDx=0;entryDy=0;exitX=0.997;exitY=0.713;exitDx=0;exitDy=0;exitPerimeter=0;" edge="1" parent="1" source="YwwB2dCAXqtVPiqAfEC3-30" target="cykcpl2Lfb5nTlmboGrK-2">
          <mxGeometry width="100" height="100" relative="1" as="geometry">
            <mxPoint x="1746" y="335" as="sourcePoint" />
            <mxPoint x="1893" y="257" as="targetPoint" />
          </mxGeometry>
        </mxCell>
        <mxCell id="cykcpl2Lfb5nTlmboGrK-49" value="Update: CASCADE&lt;div&gt;Delete: RESTRICT&lt;/div&gt;" style="text;html=1;align=center;verticalAlign=middle;resizable=0;points=[];autosize=1;strokeColor=none;fillColor=none;" vertex="1" parent="1">
          <mxGeometry x="1409" y="320" width="121" height="41" as="geometry" />
        </mxCell>
        <mxCell id="cykcpl2Lfb5nTlmboGrK-50" value="Update: CASCADE&lt;div&gt;Delete: RESTRICT&lt;/div&gt;" style="text;html=1;align=center;verticalAlign=middle;resizable=0;points=[];autosize=1;strokeColor=none;fillColor=none;" vertex="1" parent="1">
          <mxGeometry x="1760" y="416" width="121" height="41" as="geometry" />
        </mxCell>
        <mxCell id="cykcpl2Lfb5nTlmboGrK-51" value="Update: CASCADE&lt;div&gt;Delete: RESTRICT&lt;/div&gt;" style="text;html=1;align=center;verticalAlign=middle;resizable=0;points=[];autosize=1;strokeColor=none;fillColor=none;" vertex="1" parent="1">
          <mxGeometry x="1751" y="223" width="121" height="41" as="geometry" />
        </mxCell>
      </root>
    </mxGraphModel>
  </diagram>
</mxfile>
